<svg width="36" height="36" viewBox="0 0 36 36" fill="none" xmlns="http://www.w3.org/2000/svg">
<g clip-path="url(#clip0)">
<path d="M16.1816 32.2473C12.7544 32.2473 9.96494 29.387 9.96494 25.8727V4.52808L2.89869 6.18687C1.15215 6.65787 0.104925 8.50425 0.566937 10.3116L6.62559 33.507C7.02788 35.0071 8.37213 35.9999 9.81441 35.9999C10.0849 35.9999 10.36 35.9653 10.6321 35.892L25.3763 32.2473H16.1816Z" fill="#B0BEC5"/>
<path d="M35.5626 4.12475V25.8728C35.5626 28.1526 33.7633 29.9976 31.54 29.9976H16.1814C14.6748 29.9976 13.3584 29.1427 12.6709 27.8826C12.349 27.2977 12.1588 26.6078 12.1588 25.8728V4.12475C12.1588 1.84473 13.9581 0 16.1814 0H31.54C33.7633 0 35.5626 1.84473 35.5626 4.12475Z" fill="#ECEFF1"/>
<path d="M22.3986 10.4991C22.3986 12.156 21.0889 13.4989 19.473 13.4989C17.8575 13.4989 16.5475 12.156 16.5475 10.4991C16.5475 8.84248 17.8575 7.49951 19.473 7.49951C21.0889 7.49951 22.3986 8.84248 22.3986 10.4991Z" fill="#FFCB98"/>
<path d="M35.563 17.9083V25.8727C35.563 28.1525 33.7637 29.9975 31.5404 29.9975H16.1818C14.6752 29.9975 13.3588 29.1425 12.6713 27.8825L27.1669 13.0187C28.1614 11.999 29.7997 11.999 30.7945 13.0187L35.563 17.9083Z" fill="#D3BCA6"/>
<path d="M31.262 29.9975H16.1814C14.6748 29.9975 13.3584 29.1426 12.6709 27.8826C12.349 27.2976 12.1588 26.6077 12.1588 25.8728V22.408L16.1961 18.2684C17.1906 17.2484 18.8289 17.2484 19.8237 18.2684L31.262 29.9975Z" fill="#4A5568"/>
</g>
<defs>
<clipPath id="clip0">
<rect width="35.1084" height="36" fill="white" transform="translate(0.455078)"/>
</clipPath>
</defs>
</svg>
