<svg width="10" height="12" viewBox="0 0 10 12" fill="none" xmlns="http://www.w3.org/2000/svg">
<path fill-rule="evenodd" clip-rule="evenodd" d="M7.78931 9.99554H2.21069C1.76532 9.99554 1.40272 9.62817 1.40272 9.17696V5.84369H8.59728V9.17696C8.59728 9.62817 8.23468 9.99554 7.78931 9.99554ZM7.6813 1.28539C7.67569 0.897415 7.36569 0.583344 6.98205 0.583344C6.5977 0.583344 6.287 0.897415 6.28209 1.28539H3.71791C3.713 0.897415 3.4023 0.583344 3.01795 0.583344C2.63431 0.583344 2.32431 0.897415 2.3187 1.28539H2.21069C0.991724 1.28539 0 2.29013 0 3.5251V9.17696C0 10.4119 0.991724 11.4167 2.21069 11.4167H7.78931C9.00828 11.4167 10 10.4119 10 9.17696V3.5251C10 2.29013 9.00828 1.28539 7.78931 1.28539H7.6813Z" fill="black"/>
</svg>
