<svg width="10" height="10" viewBox="0 0 10 10" fill="none" xmlns="http://www.w3.org/2000/svg">
<path fill-rule="evenodd" clip-rule="evenodd" d="M6.97007 4.99907L9.04757 2.92407C9.59257 2.37907 9.59257 1.49657 9.04757 0.951568C8.50257 0.409068 7.62257 0.409068 7.07757 0.951568L5.00007 3.02907L2.92257 0.951568C2.37757 0.409068 1.49757 0.409068 0.952573 0.951568C0.407573 1.49657 0.407573 2.37907 0.952573 2.92407L3.03007 4.99907L0.952573 7.07657C0.407573 7.62157 0.407573 8.50407 0.952573 9.04657C1.49757 9.59157 2.37757 9.59157 2.92257 9.04657L5.00007 6.96907L7.07757 9.04657C7.62257 9.59157 8.50257 9.59157 9.04757 9.04657C9.59257 8.50407 9.59257 7.62157 9.04757 7.07657L6.97007 4.99907Z" fill="white"/>
</svg>
