<svg width="13" height="13" viewBox="0 0 13 13" fill="none" xmlns="http://www.w3.org/2000/svg">
<path fill-rule="evenodd" clip-rule="evenodd" d="M8.06925 6.59561L11.8458 2.59411C12.2904 2.14952 12.2904 1.42792 11.8458 0.982198C11.4001 0.537611 10.6785 0.537611 10.234 0.982198L6.45737 4.9837L2.76672 0.982198C2.32214 0.537611 1.60056 0.537611 1.15484 0.982198C0.709127 1.42792 0.709127 2.14952 1.15484 2.59411L4.84549 6.59561L1.15484 10.4054C0.709127 10.8499 0.709127 11.5715 1.15484 12.0173C1.37713 12.2396 1.66896 12.3513 1.96078 12.3513C2.25261 12.3513 2.54443 12.2396 2.76672 12.0173L6.45737 8.20752L10.234 12.0173C10.4563 12.2396 10.7481 12.3513 11.0399 12.3513C11.3317 12.3513 11.6224 12.2396 11.8458 12.0173C12.2904 11.5715 12.2904 10.8499 11.8458 10.4054L8.06925 6.59561Z" fill="black"/>
</svg>
