<svg width="14" height="15" viewBox="0 0 14 15" fill="none" xmlns="http://www.w3.org/2000/svg">
<path fill-rule="evenodd" clip-rule="evenodd" d="M4.64263 3.62701H5.78563C6.33763 3.62701 6.78563 4.07501 6.78563 4.62701C6.78563 5.17901 6.33763 5.62701 5.78563 5.62701H4.64263V13.5C4.64263 14.052 4.19563 14.5 3.64263 14.5C3.09063 14.5 2.64263 14.052 2.64263 13.5V5.62701H1.49963C0.947634 5.62701 0.499634 5.17901 0.499634 4.62701C0.499634 4.07501 0.947634 3.62701 1.49963 3.62701H2.64263V1.82701C2.64263 1.27501 3.09063 0.827011 3.64263 0.827011C4.19563 0.827011 4.64263 1.27501 4.64263 1.82701V3.62701ZM11.6661 8.91161H12.8091C13.3611 8.91161 13.8091 9.3596 13.8091 9.9116C13.8091 10.4636 13.3611 10.9116 12.8091 10.9116H11.6661V13.4996C11.6661 14.0526 11.2191 14.4996 10.6661 14.4996C10.1141 14.4996 9.66613 14.0526 9.66613 13.4996V10.9116H8.52313C7.97113 10.9116 7.52313 10.4636 7.52313 9.9116C7.52313 9.3596 7.97113 8.91161 8.52313 8.91161H9.66613V1.82761C9.66613 1.27461 10.1141 0.827605 10.6661 0.827605C11.2191 0.827605 11.6661 1.27461 11.6661 1.82761V8.91161Z" fill="#355F55"/>
</svg>
