<svg width="10" height="12" viewBox="0 0 10 12" fill="none" xmlns="http://www.w3.org/2000/svg">
<path fill-rule="evenodd" clip-rule="evenodd" d="M4.9998 6.04033C4.3126 6.04033 3.75551 5.48325 3.75551 4.79604C3.75551 4.10884 4.3126 3.55253 4.9998 3.55253C5.68701 3.55253 6.24409 4.10884 6.24409 4.79604C6.24409 5.48325 5.68701 6.04033 4.9998 6.04033ZM4.9998 0.737488C2.67874 0.738267 0.730099 2.48822 0.795547 4.93785C0.828271 6.14318 1.39782 7.32748 2.14269 8.52736C2.69899 9.42649 3.55527 10.328 4.1856 10.9341C4.64062 11.372 5.35899 11.372 5.81401 10.9341C6.44433 10.328 7.30061 9.42649 7.8577 8.52736C8.60178 7.32748 9.17133 6.14318 9.20406 4.93785C9.2695 2.48822 7.32087 0.738267 4.9998 0.737488Z" fill="black"/>
</svg>
