<svg width="15" height="18" viewBox="0 0 15 18" fill="none" xmlns="http://www.w3.org/2000/svg">
<path fill-rule="evenodd" clip-rule="evenodd" d="M8.2481 0.844412L10.6957 3.29292C11.0619 3.65917 11.0619 4.25116 10.6957 4.61741C10.3294 4.98365 9.73744 4.98365 9.3712 4.61741L8.49071 3.73692V10.8455C8.49071 11.3635 8.07107 11.7822 7.55402 11.7822C7.03603 11.7822 6.61732 11.3635 6.61732 10.8455V3.79967L5.7359 4.68016C5.55324 4.86376 5.31345 4.95462 5.07366 4.95462C4.83386 4.95462 4.59407 4.86376 4.41142 4.68016C4.04517 4.31486 4.04517 3.72193 4.41142 3.35568L6.92362 0.844412C7.09878 0.668314 7.3367 0.569962 7.58586 0.569962C7.83409 0.569962 8.07201 0.668314 8.2481 0.844412ZM1.44304 17.4046H13.6641C14.182 17.4046 14.6007 16.9859 14.6007 16.4679V7.71636C14.6007 7.19837 14.182 6.77967 13.6641 6.77967H11.2746C10.7566 6.77967 10.3379 7.19837 10.3379 7.71636C10.3379 8.23435 10.7566 8.65305 11.2746 8.65305H12.7274V15.5312H2.37973V8.65305H3.80069C4.31775 8.65305 4.73738 8.23435 4.73738 7.71636C4.73738 7.19837 4.31775 6.77967 3.80069 6.77967H1.44304C0.925049 6.77967 0.506348 7.19837 0.506348 7.71636V16.4679C0.506348 16.9859 0.925049 17.4046 1.44304 17.4046Z" fill="white"/>
</svg>
