<svg width="16" height="16" viewBox="0 0 16 16" fill="none" xmlns="http://www.w3.org/2000/svg">
<path fill-rule="evenodd" clip-rule="evenodd" d="M8.01732 8.80047L7.23562 8.23761C6.91179 8.00504 6.83911 7.55443 7.07169 7.23141C7.30426 6.90758 7.75487 6.8341 8.07789 7.06748L8.85959 7.63034C9.18342 7.86291 9.2569 8.31352 9.02352 8.63654C8.79095 8.95956 8.34034 9.03304 8.01732 8.80047ZM10.9665 9.14691L11.3573 9.42874L13.5272 6.41498C13.7339 6.12749 13.6693 5.72614 13.381 5.51941L12.4717 4.86369C12.2585 4.71106 11.9638 4.6828 11.7514 4.83623C11.3234 5.14552 10.7291 5.16248 10.2776 4.83704C9.82622 4.5116 9.65341 3.94228 9.81088 3.43918C9.88921 3.18884 9.76889 2.91831 9.5565 2.76487L8.6464 2.10996C8.35891 1.90242 7.95756 1.96783 7.75002 2.25531L5.58096 5.26907L5.97181 5.55091C6.29483 5.78348 6.36831 6.23409 6.13574 6.55711C5.90317 6.88013 5.45256 6.95361 5.12873 6.72104L4.73788 6.43921L2.47271 9.5846C2.26598 9.87289 2.33059 10.2734 2.61888 10.481L3.52818 11.1359C3.74137 11.2893 4.03612 11.3176 4.24851 11.1642C4.67651 10.8549 5.27086 10.8379 5.72228 11.1633C6.1737 11.4888 6.34651 12.0573 6.18904 12.5612C6.11071 12.8107 6.23103 13.0821 6.44342 13.2355L7.35352 13.8904C7.64101 14.0972 8.04236 14.0326 8.24989 13.7443L10.5143 10.5989L10.1234 10.317C9.80038 10.0845 9.72689 9.63386 9.95947 9.31084C10.192 8.98782 10.6427 8.91433 10.9665 9.14691Z" fill="#C1C1C1"/>
<mask id="mask0" style="mask-type:alpha" maskUnits="userSpaceOnUse" x="2" y="1" width="12" height="14">
<path fill-rule="evenodd" clip-rule="evenodd" d="M8.01732 8.80047L7.23562 8.23761C6.91179 8.00504 6.83911 7.55443 7.07169 7.23141C7.30426 6.90758 7.75487 6.8341 8.07789 7.06748L8.85959 7.63034C9.18342 7.86291 9.2569 8.31352 9.02352 8.63654C8.79095 8.95956 8.34034 9.03304 8.01732 8.80047ZM10.9665 9.14691L11.3573 9.42874L13.5272 6.41498C13.7339 6.12749 13.6693 5.72614 13.381 5.51941L12.4717 4.86369C12.2585 4.71106 11.9638 4.6828 11.7514 4.83623C11.3234 5.14552 10.7291 5.16248 10.2776 4.83704C9.82622 4.5116 9.65341 3.94228 9.81088 3.43918C9.88921 3.18884 9.76889 2.91831 9.5565 2.76487L8.6464 2.10996C8.35891 1.90242 7.95756 1.96783 7.75002 2.25531L5.58096 5.26907L5.97181 5.55091C6.29483 5.78348 6.36831 6.23409 6.13574 6.55711C5.90317 6.88013 5.45256 6.95361 5.12873 6.72104L4.73788 6.43921L2.47271 9.5846C2.26598 9.87289 2.33059 10.2734 2.61888 10.481L3.52818 11.1359C3.74137 11.2893 4.03612 11.3176 4.24851 11.1642C4.67651 10.8549 5.27086 10.8379 5.72228 11.1633C6.1737 11.4888 6.34651 12.0573 6.18904 12.5612C6.11071 12.8107 6.23103 13.0821 6.44342 13.2355L7.35352 13.8904C7.64101 14.0972 8.04236 14.0326 8.24989 13.7443L10.5143 10.5989L10.1234 10.317C9.80038 10.0845 9.72689 9.63386 9.95947 9.31084C10.192 8.98782 10.6427 8.91433 10.9665 9.14691Z" fill="white"/>
</mask>
<g mask="url(#mask0)">
<rect x="-40.0001" y="-40" width="96" height="96" fill="white"/>
</g>
</svg>
